<?xml version="1.0" encoding="utf-8"?>
<!-- Generator: Adobe Illustrator 27.0.0, SVG Export Plug-In . SVG Version: 6.00 Build 0)  -->
<svg version="1.1" id="Calque_1" xmlns="http://www.w3.org/2000/svg" xmlns:xlink="http://www.w3.org/1999/xlink" x="0px" y="0px"
	 viewBox="0 0 215 66" style="enable-background:new 0 0 215 66;" xml:space="preserve">
<style type="text/css">
	.st0{fill:#253D4E;}
	.st1{fill:#3BB77E;}
	
		.st2{clip-path:url(#SVGID_00000097495202803546534220000015126473861799130290_);fill:url(#SVGID_00000061459227557556670800000002369179877665450390_);}
	
		.st3{clip-path:url(#SVGID_00000010272849066426070400000016336899071420956060_);fill:url(#SVGID_00000049212333930940338090000016321272917862770353_);}
	
		.st4{clip-path:url(#SVGID_00000096781351881414614630000011924031706198148516_);fill:url(#SVGID_00000075851475166282424570000007621978263177183385_);}
	
		.st5{clip-path:url(#SVGID_00000090997838200278928930000013623279208400144048_);fill:url(#SVGID_00000114754333041451348290000018105463700209859714_);}
	
		.st6{clip-path:url(#SVGID_00000061445795986317342240000000516655398458813334_);fill:url(#SVGID_00000016053775348244216830000003132915299773357976_);}
	
		.st7{clip-path:url(#SVGID_00000075135170143570361480000016301489250956382890_);fill:url(#SVGID_00000129887172574484153480000003856975189204406975_);}
	.st8{filter:url(#Adobe_OpacityMaskFilter);}
	.st9{fill:url(#SVGID_00000048478121503975973660000006869599076350797232_);}
	.st10{mask:url(#SVGID_00000181773540488687515030000006277913160579780257_);fill-rule:evenodd;clip-rule:evenodd;fill:#106B60;}
	.st11{filter:url(#Adobe_OpacityMaskFilter_00000150797763481592564870000001736910003892017077_);}
	.st12{fill:url(#SVGID_00000055697260088383972380000002259412464731060374_);}
	.st13{mask:url(#SVGID_00000050647157178301537910000008935382754641167292_);fill-rule:evenodd;clip-rule:evenodd;fill:#EBF855;}
	.st14{filter:url(#Adobe_OpacityMaskFilter_00000065755087212997293390000007835507405167786133_);}
	.st15{fill:url(#SVGID_00000061432113670320613590000011126831788801722264_);}
	.st16{mask:url(#SVGID_00000101792254178217423820000012745021166862663819_);fill-rule:evenodd;clip-rule:evenodd;fill:#106B60;}
	.st17{filter:url(#Adobe_OpacityMaskFilter_00000069398203348659061040000017710859444948486806_);}
	.st18{fill:url(#SVGID_00000000922160045743271870000010334384675301806995_);}
	.st19{mask:url(#SVGID_00000051384619759528242310000000324780639523917969_);fill-rule:evenodd;clip-rule:evenodd;fill:#EBF855;}
	.st20{filter:url(#Adobe_OpacityMaskFilter_00000044166793770019193950000005471598840786232215_);}
	.st21{fill:url(#SVGID_00000169534065187358063650000011336761463601250733_);}
	.st22{mask:url(#SVGID_00000084528890483529603300000001583192512408608660_);fill-rule:evenodd;clip-rule:evenodd;fill:#B75400;}
	.st23{fill:#231916;}
	
		.st24{clip-path:url(#SVGID_00000059295894049655441390000016518054714420877238_);fill:url(#SVGID_00000083061668863006188750000003791079483444933509_);}
</style>
<path class="st0" d="M95,61l0-5.1l-2.5,4.2h-0.6L89.4,56v5H88v-7.6h1.2l3,5.1l3-5.1h1.2l0,7.6H95z M104.5,59.2h-3.8L99.9,61h-1.5
	l3.4-7.6h1.4l3.4,7.6h-1.5L104.5,59.2z M104,58.1l-1.4-3.3l-1.4,3.3H104z M113.8,61l-1.6-2.2c-0.1,0-0.2,0-0.3,0h-1.7V61h-1.4v-7.6
	h3.1c0.7,0,1.2,0.1,1.7,0.3c0.5,0.2,0.9,0.5,1.1,0.9c0.3,0.4,0.4,0.9,0.4,1.4c0,0.6-0.1,1.1-0.4,1.5c-0.3,0.4-0.7,0.7-1.2,0.9
	l1.8,2.5H113.8z M113.7,56.1c0-0.5-0.2-0.9-0.5-1.1s-0.8-0.4-1.4-0.4h-1.7v3h1.7c0.6,0,1.1-0.1,1.4-0.4
	C113.6,56.9,113.7,56.6,113.7,56.1z M119.3,54.6h-2.5v-1.2h6.5v1.2h-2.5V61h-1.4V54.6z M135.2,61.1l-1-0.9c-0.7,0.6-1.6,0.9-2.6,0.9
	c-0.5,0-1-0.1-1.4-0.3c-0.4-0.2-0.8-0.4-1-0.7c-0.2-0.3-0.4-0.7-0.4-1.1c0-0.5,0.1-0.9,0.4-1.2c0.3-0.4,0.7-0.7,1.4-1.1
	c-0.3-0.3-0.5-0.6-0.7-0.9c-0.1-0.3-0.2-0.5-0.2-0.8c0-0.5,0.2-1,0.6-1.3c0.4-0.3,0.9-0.5,1.6-0.5c0.6,0,1.1,0.2,1.5,0.5
	c0.4,0.3,0.6,0.7,0.6,1.2c0,0.4-0.1,0.7-0.4,1c-0.2,0.3-0.6,0.6-1.2,0.9l1.6,1.6c0.2-0.4,0.3-0.8,0.4-1.3l1.1,0.4
	c-0.1,0.7-0.4,1.3-0.7,1.7l1,0.9L135.2,61.1z M132,54.3c-0.3,0-0.5,0.1-0.7,0.2c-0.2,0.1-0.3,0.3-0.3,0.6c0,0.2,0,0.3,0.1,0.5
	c0.1,0.2,0.3,0.4,0.5,0.6c0.4-0.2,0.7-0.4,0.9-0.6c0.2-0.2,0.3-0.4,0.3-0.6c0-0.2-0.1-0.4-0.2-0.5C132.5,54.3,132.3,54.3,132,54.3z
	 M131.8,60c0.6,0,1.2-0.2,1.7-0.6l-2-1.9c-0.4,0.2-0.7,0.5-0.9,0.7c-0.2,0.2-0.3,0.5-0.3,0.7c0,0.3,0.1,0.6,0.4,0.8
	C130.9,59.9,131.3,60,131.8,60z M147.6,57.1h1.3v3c-0.4,0.3-0.8,0.6-1.4,0.7c-0.5,0.2-1.1,0.3-1.6,0.3c-0.8,0-1.5-0.2-2.1-0.5
	c-0.6-0.3-1.1-0.8-1.5-1.4c-0.4-0.6-0.5-1.3-0.5-2c0-0.7,0.2-1.4,0.5-2c0.4-0.6,0.8-1.1,1.5-1.4c0.6-0.3,1.3-0.5,2.1-0.5
	c0.6,0,1.2,0.1,1.7,0.3c0.5,0.2,1,0.5,1.3,0.9l-0.9,0.9c-0.6-0.6-1.3-0.9-2.1-0.9c-0.5,0-1,0.1-1.4,0.3c-0.4,0.2-0.7,0.5-1,0.9
	c-0.2,0.4-0.3,0.9-0.3,1.4c0,0.5,0.1,1,0.3,1.4c0.2,0.4,0.6,0.7,1,1c0.4,0.2,0.9,0.3,1.4,0.3c0.6,0,1.1-0.1,1.6-0.4V57.1z M156.9,61
	l-1.6-2.2c-0.1,0-0.2,0-0.3,0h-1.7V61h-1.4v-7.6h3.1c0.7,0,1.2,0.1,1.7,0.3c0.5,0.2,0.9,0.5,1.1,0.9c0.3,0.4,0.4,0.9,0.4,1.4
	c0,0.6-0.1,1.1-0.4,1.5c-0.3,0.4-0.7,0.7-1.2,0.9l1.8,2.5H156.9z M156.8,56.1c0-0.5-0.2-0.9-0.5-1.1c-0.3-0.3-0.8-0.4-1.4-0.4h-1.7
	v3h1.7c0.6,0,1.1-0.1,1.4-0.4C156.7,56.9,156.8,56.6,156.8,56.1z M164.5,61.1c-0.8,0-1.5-0.2-2.1-0.5c-0.6-0.3-1.1-0.8-1.5-1.4
	c-0.4-0.6-0.5-1.3-0.5-2s0.2-1.4,0.5-2c0.4-0.6,0.8-1.1,1.5-1.4c0.6-0.3,1.3-0.5,2.1-0.5c0.8,0,1.5,0.2,2.1,0.5
	c0.6,0.3,1.1,0.8,1.5,1.4c0.4,0.6,0.5,1.3,0.5,2c0,0.7-0.2,1.4-0.5,2c-0.4,0.6-0.8,1.1-1.5,1.4C166,60.9,165.3,61.1,164.5,61.1z
	 M164.5,59.9c0.5,0,1-0.1,1.4-0.3c0.4-0.2,0.7-0.6,1-1c0.2-0.4,0.3-0.9,0.3-1.4c0-0.5-0.1-1-0.3-1.4c-0.2-0.4-0.6-0.7-1-1
	c-0.4-0.2-0.9-0.3-1.4-0.3c-0.5,0-1,0.1-1.4,0.3c-0.4,0.2-0.7,0.5-1,1c-0.2,0.4-0.3,0.9-0.3,1.4c0,0.5,0.1,1,0.3,1.4
	c0.2,0.4,0.6,0.7,1,1C163.5,59.8,164,59.9,164.5,59.9z M174.7,61.1c-0.8,0-1.5-0.2-2.1-0.5c-0.6-0.3-1.1-0.8-1.5-1.4
	c-0.3-0.6-0.5-1.3-0.5-2c0-0.7,0.2-1.4,0.5-2c0.4-0.6,0.8-1.1,1.5-1.4c0.6-0.3,1.3-0.5,2.1-0.5c0.6,0,1.2,0.1,1.7,0.3
	c0.5,0.2,1,0.5,1.3,0.9l-0.9,0.9c-0.6-0.6-1.2-0.9-2-0.9c-0.5,0-1,0.1-1.4,0.3c-0.4,0.2-0.7,0.5-1,0.9c-0.2,0.4-0.3,0.9-0.3,1.4
	s0.1,1,0.3,1.4c0.2,0.4,0.6,0.7,1,1c0.4,0.2,0.9,0.3,1.4,0.3c0.8,0,1.5-0.3,2-0.9l0.9,0.9c-0.4,0.4-0.8,0.7-1.3,0.9
	C175.9,61,175.4,61.1,174.7,61.1z M185.9,59.8V61h-5.7v-7.6h5.6v1.2h-4.2v2h3.7v1.2h-3.7v2.1H185.9z M193.6,61l-1.6-2.2
	c-0.1,0-0.2,0-0.3,0H190V61h-1.4v-7.6h3.1c0.7,0,1.2,0.1,1.7,0.3c0.5,0.2,0.9,0.5,1.1,0.9c0.3,0.4,0.4,0.9,0.4,1.4
	c0,0.6-0.1,1.1-0.4,1.5c-0.3,0.4-0.7,0.7-1.2,0.9l1.8,2.5H193.6z M193.6,56.1c0-0.5-0.2-0.9-0.5-1.1c-0.3-0.3-0.8-0.4-1.4-0.4H190v3
	h1.7c0.6,0,1.1-0.1,1.4-0.4C193.4,56.9,193.6,56.6,193.6,56.1z M200.9,58.3V61h-1.4v-2.7l-3-5h1.5l2.2,3.7l2.3-3.7h1.4L200.9,58.3z"
	/>
<path class="st1" d="M117.6,7.2c0.9,0,1.6,0.3,2.2,0.9s0.8,1.3,0.8,2.2v32.4c0,1-0.3,1.8-1,2.4c-0.6,0.6-1.4,0.9-2.4,0.9
	c-0.5,0-1-0.1-1.5-0.2c-0.5-0.2-0.9-0.4-1.1-0.7L92.8,17.4l1.4-0.9v26.4c0,0.9-0.3,1.6-0.9,2.2c-0.6,0.6-1.3,0.9-2.2,0.9
	c-0.9,0-1.6-0.3-2.2-0.9s-0.8-1.3-0.8-2.2V10.5c0-1,0.3-1.8,0.9-2.4c0.7-0.7,1.5-1,2.4-1c0.5,0,1.1,0.1,1.6,0.3
	c0.6,0.2,1,0.5,1.2,0.9l21.1,27l-0.9,0.7V10.3c0-0.9,0.3-1.6,0.8-2.2S116.7,7.2,117.6,7.2z M142.1,46.6c-3.1,0-5.9-0.6-8.2-1.9
	c-2.3-1.3-4.1-3.1-5.3-5.4c-1.2-2.3-1.8-4.8-1.8-7.7c0-3.3,0.7-6.2,2-8.5c1.4-2.4,3.1-4.2,5.3-5.4s4.5-1.9,6.9-1.9
	c1.9,0,3.7,0.4,5.3,1.2c1.7,0.8,3.2,1.9,4.5,3.2c1.3,1.3,2.3,2.9,3.1,4.7c0.8,1.8,1.2,3.7,1.2,5.7c0,0.9-0.4,1.6-1.1,2.2
	s-1.4,0.8-2.3,0.8h-21.2l-1.7-5.6h20.4l-1.2,1.1v-1.5c-0.1-1.1-0.5-2-1.2-2.9c-0.7-0.9-1.5-1.5-2.6-2c-1-0.5-2.1-0.8-3.2-0.8
	c-1.1,0-2.1,0.1-3.1,0.4s-1.8,0.8-2.5,1.5c-0.7,0.7-1.3,1.6-1.7,2.8c-0.4,1.2-0.6,2.7-0.6,4.5c0,2,0.4,3.7,1.2,5.1
	c0.9,1.4,1.9,2.4,3.2,3.2c1.3,0.7,2.7,1.1,4.2,1.1c1.4,0,2.5-0.1,3.3-0.3s1.5-0.5,1.9-0.8c0.5-0.3,1-0.6,1.4-0.8
	c0.7-0.3,1.3-0.5,1.9-0.5c0.8,0,1.5,0.3,2,0.8c0.6,0.6,0.8,1.2,0.8,1.9c0,1-0.5,1.9-1.6,2.7c-1,0.8-2.3,1.5-4.1,2.2
	C145.8,46.3,144,46.6,142.1,46.6z M158.8,41.4c-0.4-0.5-0.5-1.2-0.5-2s0.5-1.5,1.4-2.1c0.6-0.4,1.2-0.5,1.9-0.4c0.7,0,1.3,0.4,1.9,1
	c1.1,1.1,2.2,1.9,3.4,2.5c1.2,0.6,2.7,0.9,4.4,0.9c0.6,0,1.2-0.1,1.8-0.2c0.7-0.1,1.2-0.4,1.7-0.9c0.5-0.5,0.8-1.2,0.8-2.2
	c0-0.8-0.3-1.5-0.8-1.9c-0.6-0.5-1.3-0.9-2.2-1.2c-0.9-0.3-1.9-0.6-3-0.9c-1.1-0.3-2.3-0.7-3.6-1.1c-1.2-0.4-2.3-0.9-3.3-1.6
	c-1-0.7-1.8-1.5-2.4-2.6c-0.6-1.1-0.9-2.4-0.9-4.1c0-1.9,0.5-3.4,1.6-4.7s2.4-2.3,4-3c1.7-0.7,3.4-1.1,5.2-1.1
	c1.1,0,2.3,0.1,3.6,0.4c1.3,0.3,2.5,0.7,3.6,1.3c1.1,0.6,2.1,1.4,2.9,2.4c0.4,0.6,0.6,1.2,0.7,2c0.1,0.8-0.3,1.5-1.1,2.1
	c-0.6,0.4-1.2,0.6-1.9,0.6c-0.7-0.1-1.3-0.3-1.8-0.8c-0.6-0.8-1.5-1.5-2.6-1.9c-1-0.5-2.2-0.7-3.6-0.7c-0.6,0-1.2,0.1-1.8,0.2
	c-0.6,0.1-1.2,0.4-1.7,0.8c-0.5,0.4-0.7,1.1-0.7,2c0,0.9,0.3,1.5,0.8,2.1c0.6,0.5,1.3,0.9,2.2,1.2c1,0.3,2,0.6,3.1,0.9
	c1.1,0.3,2.2,0.6,3.4,1.1s2.2,0.9,3.2,1.6c1,0.7,1.7,1.5,2.3,2.6c0.6,1,0.9,2.4,0.9,4c0,1.9-0.6,3.5-1.7,4.8
	c-1.1,1.3-2.5,2.3-4.2,3.1c-1.7,0.7-3.4,1-5.1,1c-2.2,0-4.4-0.4-6.5-1.1C162.1,44.7,160.3,43.3,158.8,41.4z M187.7,16.9h13.2
	c0.9,0,1.6,0.3,2.2,0.9c0.6,0.6,0.9,1.3,0.9,2.2c0,0.9-0.3,1.6-0.9,2.2c-0.6,0.6-1.3,0.8-2.2,0.8h-13.2c-0.9,0-1.6-0.3-2.2-0.9
	c-0.6-0.6-0.9-1.3-0.9-2.2c0-0.9,0.3-1.6,0.9-2.1C186,17.2,186.8,16.9,187.7,16.9z M193.6,9.9c1,0,1.7,0.3,2.3,1
	c0.6,0.6,0.9,1.4,0.9,2.4V38c0,0.5,0.1,0.9,0.3,1.3c0.2,0.3,0.5,0.6,0.8,0.7c0.4,0.1,0.8,0.2,1.2,0.2c0.4,0,0.9-0.1,1.2-0.2
	c0.4-0.2,0.8-0.3,1.3-0.3c0.5,0,1,0.2,1.4,0.7c0.4,0.5,0.7,1.1,0.7,2c0,1-0.6,1.9-1.7,2.6c-1.1,0.7-2.3,1-3.6,1
	c-0.8,0-1.6-0.1-2.6-0.2c-0.9-0.1-1.8-0.5-2.7-0.9c-0.8-0.5-1.5-1.3-2.1-2.3c-0.6-1-0.8-2.5-0.8-4.3v-25c0-1,0.3-1.8,0.9-2.4
	C191.8,10.3,192.6,9.9,193.6,9.9z"/>
<g>
	<defs>
		<polygon id="SVGID_1_" points="45.1,45.7 51,58.4 49.1,58.4 41,45.8 		"/>
	</defs>
	<clipPath id="SVGID_00000093879478098209634170000002696453479441996731_">
		<use xlink:href="#SVGID_1_"  style="overflow:visible;"/>
	</clipPath>
	
		<linearGradient id="SVGID_00000002356250650403770730000000527806873448723115_" gradientUnits="userSpaceOnUse" x1="41.9756" y1="45.6195" x2="53.8879" y2="64.6806">
		<stop  offset="0" style="stop-color:#005B50"/>
		<stop  offset="1" style="stop-color:#2B975D"/>
	</linearGradient>
	
		<rect x="41" y="45.7" style="clip-path:url(#SVGID_00000093879478098209634170000002696453479441996731_);fill:url(#SVGID_00000002356250650403770730000000527806873448723115_);" width="10" height="12.7"/>
</g>
<g>
	<defs>
		<polygon id="SVGID_00000062176199832249840130000017622713617730194065_" points="50.7,45.7 56.6,58.4 54.7,58.4 46.6,45.8 		"/>
	</defs>
	<clipPath id="SVGID_00000003788592319308931710000003572144067666542722_">
		<use xlink:href="#SVGID_00000062176199832249840130000017622713617730194065_"  style="overflow:visible;"/>
	</clipPath>
	
		<linearGradient id="SVGID_00000029752020383603160950000010599708705510511038_" gradientUnits="userSpaceOnUse" x1="45.9664" y1="43.0542" x2="57.8787" y2="62.1152">
		<stop  offset="0" style="stop-color:#005B50"/>
		<stop  offset="1" style="stop-color:#2B975D"/>
	</linearGradient>
	
		<rect x="46.6" y="45.7" style="clip-path:url(#SVGID_00000003788592319308931710000003572144067666542722_);fill:url(#SVGID_00000029752020383603160950000010599708705510511038_);" width="10" height="12.7"/>
</g>
<g>
	<defs>
		<path id="SVGID_00000130621075393186006520000011359768722701582012_" d="M60.8,8.2c0,0,3.1,2,4.7,0.7c1.9-1.9,5.8-3.5,5.8-3.5
			c-2.2-1.4-6.3-1-6.3-1s0.3,1.7-2.7,3L60.8,8.2z"/>
	</defs>
	<clipPath id="SVGID_00000018196287028316466400000008623218568418271660_">
		<use xlink:href="#SVGID_00000130621075393186006520000011359768722701582012_"  style="overflow:visible;"/>
	</clipPath>
	
		<linearGradient id="SVGID_00000119109539512852182590000018345688454960316813_" gradientUnits="userSpaceOnUse" x1="62.124" y1="8.1799" x2="71.4994" y2="5.8358">
		<stop  offset="0" style="stop-color:#F4AA35"/>
		<stop  offset="1" style="stop-color:#FFCE4B"/>
	</linearGradient>
	
		<rect x="60.8" y="4.1" style="clip-path:url(#SVGID_00000018196287028316466400000008623218568418271660_);fill:url(#SVGID_00000119109539512852182590000018345688454960316813_);" width="10.6" height="6.1"/>
</g>
<g>
	<defs>
		<path id="SVGID_00000116211838002074574040000011752619647592666034_" d="M62.4,7.5c2.9-1.3,2.7-3,2.7-3
			C49.6-6.5,37.3,15.6,37.3,15.6C54,7.3,48.2,38.1,25,37.7c9.2,19.7,46.6,9.7,39.1-21.5c-0.8-2.3,1.4-7.3,1.4-7.3
			c-1.6,1.3-4.7-0.7-4.7-0.7L62.4,7.5z"/>
	</defs>
	<clipPath id="SVGID_00000057854560634378190120000001926834585024048562_">
		<use xlink:href="#SVGID_00000116211838002074574040000011752619647592666034_"  style="overflow:visible;"/>
	</clipPath>
	
		<linearGradient id="SVGID_00000060000414041592412600000008468542471701995410_" gradientUnits="userSpaceOnUse" x1="44.5681" y1="35.8394" x2="60.1128" y2="-7.2075">
		<stop  offset="0" style="stop-color:#007B70"/>
		<stop  offset="1" style="stop-color:#AFF022"/>
	</linearGradient>
	
		<rect x="25" y="-6.5" style="clip-path:url(#SVGID_00000057854560634378190120000001926834585024048562_);fill:url(#SVGID_00000060000414041592412600000008468542471701995410_);" width="46.6" height="63.9"/>
</g>
<g>
	<defs>
		<path id="SVGID_00000120521255552016149330000017205088791688795285_" d="M25,37.7c23.2,0.4,29-30.4,12.2-22.1
			c-14.2,9.2-21,22-21,22L25,37.7z"/>
	</defs>
	<clipPath id="SVGID_00000000931480303986715220000013636109157661170835_">
		<use xlink:href="#SVGID_00000120521255552016149330000017205088791688795285_"  style="overflow:visible;"/>
	</clipPath>
	
		<linearGradient id="SVGID_00000080180774332215065200000004878380667867259531_" gradientUnits="userSpaceOnUse" x1="49.9262" y1="34.1633" x2="30.2889" y2="18.9991">
		<stop  offset="0" style="stop-color:#007B70"/>
		<stop  offset="1" style="stop-color:#AFF022"/>
	</linearGradient>
	
		<rect x="16.2" y="7.3" style="clip-path:url(#SVGID_00000000931480303986715220000013636109157661170835_);fill:url(#SVGID_00000080180774332215065200000004878380667867259531_);" width="37.8" height="30.8"/>
</g>
<g>
	<defs>
		<path id="SVGID_00000001650582007908886460000015444645918226447290_" d="M25,37.7l-8.8-0.1l-14,8.3c4.9,2.4,9.6,0.6,9.6,0.6
			L25,37.7z"/>
	</defs>
	<clipPath id="SVGID_00000178920302321844127980000007634493130810978467_">
		<use xlink:href="#SVGID_00000001650582007908886460000015444645918226447290_"  style="overflow:visible;"/>
	</clipPath>
	
		<linearGradient id="SVGID_00000062888228484466562830000005758077539178246822_" gradientUnits="userSpaceOnUse" x1="24.9213" y1="28.3569" x2="8.4231" y2="49.7403">
		<stop  offset="0" style="stop-color:#007B70"/>
		<stop  offset="1" style="stop-color:#AFF022"/>
	</linearGradient>
	
		<rect x="2.2" y="37.6" style="clip-path:url(#SVGID_00000178920302321844127980000007634493130810978467_);fill:url(#SVGID_00000062888228484466562830000005758077539178246822_);" width="22.8" height="10.7"/>
</g>
<defs>
	<filter id="Adobe_OpacityMaskFilter" filterUnits="userSpaceOnUse" x="25" y="16.2" width="40.1" height="31.6">
		<feColorMatrix  type="matrix" values="1 0 0 0 0  0 1 0 0 0  0 0 1 0 0  0 0 0 1 0"/>
	</filter>
</defs>
<mask maskUnits="userSpaceOnUse" x="25" y="16.2" width="40.1" height="31.6" id="SVGID_00000018232757007284386860000001466577886845202347_">
	<g class="st8">
		
			<linearGradient id="SVGID_00000096043834242027169880000011661627436968959908_" gradientUnits="userSpaceOnUse" x1="-3900.3105" y1="2068.1843" x2="-3853.3064" y2="2051.7334" gradientTransform="matrix(1 0 0 1 3929.0967 -2030.4714)">
			<stop  offset="0" style="stop-color:#FFFFFF"/>
			<stop  offset="1" style="stop-color:#000000"/>
		</linearGradient>
		
			<rect x="25" y="16.2" style="fill:url(#SVGID_00000096043834242027169880000011661627436968959908_);" width="40.1" height="31.6"/>
	</g>
</mask>
<path style="mask:url(#SVGID_00000018232757007284386860000001466577886845202347_);fill-rule:evenodd;clip-rule:evenodd;fill:#106B60;" d="
	M64.1,16.2c0,0-2.8,22.9-27.2,23c10.5-5.3,10.5-15.7,10-20.1c0.3,7-7.4,18.8-21.9,18.6C34.2,57.4,71.6,47.4,64.1,16.2"/>
<defs>
	
		<filter id="Adobe_OpacityMaskFilter_00000011735200107773004390000008435986783974625696_" filterUnits="userSpaceOnUse" x="16.2" y="14.2" width="28.8" height="23.4">
		<feColorMatrix  type="matrix" values="1 0 0 0 0  0 1 0 0 0  0 0 1 0 0  0 0 0 1 0"/>
	</filter>
</defs>
<mask maskUnits="userSpaceOnUse" x="16.2" y="14.2" width="28.8" height="23.4" id="SVGID_00000072994177582812328960000017679539879687643554_">
	<g style="filter:url(#Adobe_OpacityMaskFilter_00000011735200107773004390000008435986783974625696_);">
		
			<linearGradient id="SVGID_00000122678834526334210460000015955328915834310591_" gradientUnits="userSpaceOnUse" x1="-3854.4324" y1="2145.7832" x2="-3798.3906" y2="2145.7822" gradientTransform="matrix(1 0 0 1 3849.8726 -2119.855)">
			<stop  offset="0" style="stop-color:#FFFFFF"/>
			<stop  offset="1" style="stop-color:#000000"/>
		</linearGradient>
		
			<rect x="16.2" y="14.2" style="fill:url(#SVGID_00000122678834526334210460000015955328915834310591_);" width="28.8" height="23.4"/>
	</g>
</mask>
<path style="mask:url(#SVGID_00000072994177582812328960000017679539879687643554_);fill-rule:evenodd;clip-rule:evenodd;fill:#EBF855;" d="
	M16.2,37.6c0,0,29.3-5.6,28.8-22.6c-1.6-1.1-4.1-1.2-7.7,0.6C23,24.8,16.2,37.6,16.2,37.6"/>
<defs>
	
		<filter id="Adobe_OpacityMaskFilter_00000093863331436438067110000000260928499475423629_" filterUnits="userSpaceOnUse" x="6.1" y="37.6" width="18.9" height="9.6">
		<feColorMatrix  type="matrix" values="1 0 0 0 0  0 1 0 0 0  0 0 1 0 0  0 0 0 1 0"/>
	</filter>
</defs>
<mask maskUnits="userSpaceOnUse" x="6.1" y="37.6" width="18.9" height="9.6" id="SVGID_00000011728880959581734280000005152601635175450500_">
	<g style="filter:url(#Adobe_OpacityMaskFilter_00000093863331436438067110000000260928499475423629_);">
		
			<linearGradient id="SVGID_00000119811043272498397850000012601985954525089426_" gradientUnits="userSpaceOnUse" x1="-3729.3562" y1="2070.0701" x2="-3748.1711" y2="2081.8286" gradientTransform="matrix(1 0 0 1 3758.2214 -2035.9585)">
			<stop  offset="0" style="stop-color:#FFFFFF"/>
			<stop  offset="1" style="stop-color:#000000"/>
		</linearGradient>
		
			<rect x="6.1" y="37.6" style="fill:url(#SVGID_00000119811043272498397850000012601985954525089426_);" width="18.9" height="9.6"/>
	</g>
</mask>
<path style="mask:url(#SVGID_00000011728880959581734280000005152601635175450500_);fill-rule:evenodd;clip-rule:evenodd;fill:#106B60;" d="
	M16.2,37.6c0,0-0.7,6.9-10.1,9.5c3.2,0.4,5.7-0.5,5.7-0.5L25,37.7L16.2,37.6z"/>
<defs>
	
		<filter id="Adobe_OpacityMaskFilter_00000153670614794588991290000006892170812731504059_" filterUnits="userSpaceOnUse" x="37.3" y="1.4" width="27.8" height="14.2">
		<feColorMatrix  type="matrix" values="1 0 0 0 0  0 1 0 0 0  0 0 1 0 0  0 0 0 1 0"/>
	</filter>
</defs>
<mask maskUnits="userSpaceOnUse" x="37.3" y="1.4" width="27.8" height="14.2" id="SVGID_00000117636228027844146970000009660063509653433253_">
	<g style="filter:url(#Adobe_OpacityMaskFilter_00000153670614794588991290000006892170812731504059_);">
		
			<linearGradient id="SVGID_00000016792121789991705090000012849545670137807235_" gradientUnits="userSpaceOnUse" x1="-3987.5527" y1="2306.3982" x2="-3988.7527" y2="2324.3857" gradientTransform="matrix(1 0 0 1 4039.7048 -2312.7488)">
			<stop  offset="0" style="stop-color:#FFFFFF"/>
			<stop  offset="1" style="stop-color:#000000"/>
		</linearGradient>
		
			<rect x="37.3" y="1.4" style="fill:url(#SVGID_00000016792121789991705090000012849545670137807235_);" width="27.8" height="14.2"/>
	</g>
</mask>
<path style="mask:url(#SVGID_00000117636228027844146970000009660063509653433253_);fill-rule:evenodd;clip-rule:evenodd;fill:#EBF855;" d="
	M37.3,15.6c0,0,11.8-11.5,23.5-7.4l1.6-0.8c2.9-1.3,2.7-3,2.7-3C49.6-6.5,37.3,15.6,37.3,15.6"/>
<defs>
	
		<filter id="Adobe_OpacityMaskFilter_00000155132823949784607580000009812310969166416035_" filterUnits="userSpaceOnUse" x="60.8" y="5.5" width="10.6" height="3.9">
		<feColorMatrix  type="matrix" values="1 0 0 0 0  0 1 0 0 0  0 0 1 0 0  0 0 0 1 0"/>
	</filter>
</defs>
<mask maskUnits="userSpaceOnUse" x="60.8" y="5.5" width="10.6" height="3.9" id="SVGID_00000088813044283414236220000002386979278380515493_">
	<g style="filter:url(#Adobe_OpacityMaskFilter_00000155132823949784607580000009812310969166416035_);">
		
			<linearGradient id="SVGID_00000003805125201956604780000008878625695360271786_" gradientUnits="userSpaceOnUse" x1="-4192.9526" y1="2375.5166" x2="-4173.7798" y2="2373.7432" gradientTransform="matrix(1 0 0 1 4252.1157 -2367.4365)">
			<stop  offset="0" style="stop-color:#FFFFFF"/>
			<stop  offset="1" style="stop-color:#000000"/>
		</linearGradient>
		
			<rect x="60.8" y="5.5" style="fill:url(#SVGID_00000003805125201956604780000008878625695360271786_);" width="10.6" height="3.9"/>
	</g>
</mask>
<path style="mask:url(#SVGID_00000088813044283414236220000002386979278380515493_);fill-rule:evenodd;clip-rule:evenodd;fill:#B75400;" d="
	M71.3,5.5c0,0-5.8,1.8-10.6,2.8c0,0,3.1,2,4.7,0.7C67.3,7,71.3,5.5,71.3,5.5"/>
<path class="st23" d="M37.6,57.7c12.5,0,20.2,0,32.7,0c0.1,2.7-2.9,2.4-5.4,2.4H30.5C30.4,57.2,34.8,57.7,37.6,57.7"/>
<g>
	<defs>
		<path id="SVGID_00000088109448986882603370000000908732183250223549_" d="M77.3,41.1c-6.3,0-11.4,5.3-11.4,11.8
			c0,1.2,0.2,2.3,0.5,3.4c0.6,0.1,1.2,0.2,1.9,0.2c6.3,0,11.4-5.3,11.4-11.8c0-1.2-0.2-2.3-0.5-3.4C78.6,41.2,77.9,41.1,77.3,41.1"
			/>
	</defs>
	<clipPath id="SVGID_00000087396284697099457220000011301981869675802516_">
		<use xlink:href="#SVGID_00000088109448986882603370000000908732183250223549_"  style="overflow:visible;"/>
	</clipPath>
	
		<linearGradient id="SVGID_00000022541983458610269000000002108925076836139408_" gradientUnits="userSpaceOnUse" x1="71.5894" y1="52.1819" x2="76.6131" y2="37.8427">
		<stop  offset="0" style="stop-color:#007B70"/>
		<stop  offset="1" style="stop-color:#AFF022"/>
	</linearGradient>
	
		<rect x="65.9" y="41.1" style="clip-path:url(#SVGID_00000087396284697099457220000011301981869675802516_);fill:url(#SVGID_00000022541983458610269000000002108925076836139408_);" width="13.8" height="15.4"/>
</g>
</svg>
