<?xml version="1.0" encoding="utf-8"?>
<!-- Generator: Adobe Illustrator 27.0.0, SVG Export Plug-In . SVG Version: 6.00 Build 0)  -->
<svg version="1.1" id="Calque_1" xmlns="http://www.w3.org/2000/svg" xmlns:xlink="http://www.w3.org/1999/xlink" x="0px" y="0px"
	 viewBox="0 0 215 66" style="enable-background:new 0 0 215 66;" xml:space="preserve">
<style type="text/css">
	.st0{fill:#00240F;}
	.st1{fill:#00000F;}
	.st2{fill:#00B40F;}
	
		.st3{clip-path:url(#SVGID_00000107588181661514208160000007690239672964658056_);fill:url(#SVGID_00000038399425250137506000000007397710924950817409_);}
	
		.st4{clip-path:url(#SVGID_00000050656124005150686350000005535909750146516912_);fill:url(#SVGID_00000083062779837319906880000001768371450503949740_);}
	
		.st5{clip-path:url(#SVGID_00000082345049143143729810000008840050742449220281_);fill:url(#SVGID_00000065795178338701071820000003620843910893616271_);}
	
		.st6{clip-path:url(#SVGID_00000085955403479137521940000012010916711988447653_);fill:url(#SVGID_00000052072884039580865160000005083292063243416460_);}
	
		.st7{clip-path:url(#SVGID_00000059280839491884063640000013877088077516934303_);fill:url(#SVGID_00000000903252529760128640000000926038435888280205_);}
	
		.st8{clip-path:url(#SVGID_00000087383784604639100870000003068315704752480145_);fill:url(#SVGID_00000161610493328950095950000014312235808166551482_);}
	.st9{filter:url(#Adobe_OpacityMaskFilter);}
	.st10{fill:url(#SVGID_00000098918866396748120490000006164872789732480702_);}
	.st11{mask:url(#SVGID_00000007418325392265889200000004010919209542321329_);fill-rule:evenodd;clip-rule:evenodd;fill:#106B60;}
	.st12{filter:url(#Adobe_OpacityMaskFilter_00000015341989371191608500000011034528377187032968_);}
	.st13{fill:url(#SVGID_00000022550545894505606680000010778549166340343226_);}
	.st14{mask:url(#SVGID_00000008110847923804390630000000523198373874589065_);fill-rule:evenodd;clip-rule:evenodd;fill:#EBF855;}
	.st15{filter:url(#Adobe_OpacityMaskFilter_00000010301232997329195950000011937947080091147676_);}
	.st16{fill:url(#SVGID_00000002358824475663760370000005319395859886512784_);}
	.st17{mask:url(#SVGID_00000139992363490711970270000000405711207990142087_);fill-rule:evenodd;clip-rule:evenodd;fill:#106B60;}
	.st18{filter:url(#Adobe_OpacityMaskFilter_00000074435112338173150140000000090604260018200460_);}
	.st19{fill:url(#SVGID_00000173120809035706636640000008414699616029284229_);}
	.st20{mask:url(#SVGID_00000055675065149921196670000001017820158982088094_);fill-rule:evenodd;clip-rule:evenodd;fill:#EBF855;}
	.st21{filter:url(#Adobe_OpacityMaskFilter_00000148632582827136628110000000661934210228008367_);}
	.st22{fill:url(#SVGID_00000020397470385405110910000009062314763192294555_);}
	.st23{mask:url(#SVGID_00000170980240912129085980000010713811805949586837_);fill-rule:evenodd;clip-rule:evenodd;fill:#B75400;}
	.st24{fill:#231916;}
	
		.st25{clip-path:url(#SVGID_00000137846842846861656380000016260908948812133521_);fill:url(#SVGID_00000051374272718348570550000012500934609628922499_);}
</style>
<g>
	<g>
		<path class="st0" d="M85.1,38.4V25.6h2.4v12.8H85.1z M86.4,38.4v-2.3h3.1c0.8,0,1.4-0.2,1.8-0.6s0.7-0.9,0.7-1.6v-3.8
			c0-0.7-0.2-1.2-0.7-1.6s-1-0.6-1.8-0.6h-3.1v-2.3h3c1.6,0,2.8,0.4,3.7,1.2s1.3,1.9,1.3,3.4v3.6c0,0.9-0.2,1.7-0.6,2.4
			s-0.9,1.2-1.7,1.6c-0.7,0.4-1.7,0.6-2.8,0.6H86.4z"/>
		<path class="st0" d="M103.4,29.3v2l-4,4.9h4.3v2.2h-7.1v-2.1l4.1-4.9h-4v-2.2H103.4z"/>
		<path class="st1" d="M105.7,32.7h6.3V35h-6.3V32.7z"/>
		<path class="st2" d="M118.9,38.5c-0.9,0-1.8-0.2-2.5-0.6c-0.7-0.4-1.2-0.9-1.6-1.6s-0.6-1.5-0.6-2.5v-3.6c0-0.9,0.2-1.8,0.6-2.5
			s0.9-1.3,1.6-1.6c0.7-0.4,1.5-0.6,2.5-0.6s1.8,0.2,2.5,0.6s1.2,0.9,1.6,1.6s0.6,1.5,0.6,2.5v3.6c0,0.9-0.2,1.8-0.6,2.5
			s-0.9,1.3-1.6,1.6C120.6,38.4,119.8,38.5,118.9,38.5z M118.9,36.1c0.7,0,1.2-0.2,1.6-0.6c0.4-0.4,0.6-1,0.6-1.6v-3.7
			c0-0.7-0.2-1.2-0.6-1.6c-0.4-0.4-0.9-0.6-1.6-0.6s-1.2,0.2-1.6,0.6c-0.4,0.4-0.6,1-0.6,1.6v3.7c0,0.7,0.2,1.2,0.6,1.6
			C117.7,35.9,118.2,36.1,118.9,36.1z"/>
		<path class="st2" d="M125.9,38.4v-9.1h2.6v9.1H125.9z M131.1,31.8c-0.1-0.1-0.3-0.2-0.4-0.3c-0.2-0.1-0.4-0.1-0.6-0.1
			c-0.5,0-0.9,0.2-1.1,0.5c-0.3,0.3-0.4,0.7-0.4,1.3l-0.2-2.4c0.3-0.5,0.6-1,1-1.3s0.8-0.5,1.3-0.5c0.4,0,0.7,0.1,1,0.2
			c0.3,0.1,0.6,0.3,0.8,0.5L131.1,31.8z"/>
		<path class="st2" d="M133.6,38.4v-9.1h2.4v9.1H133.6z M138.9,38.4v-5.5c0-0.5-0.1-0.8-0.4-1c-0.3-0.2-0.6-0.4-1.1-0.4
			c-0.4,0-0.8,0.1-1,0.4c-0.2,0.2-0.4,0.6-0.4,1.1l-0.2-2c0.3-0.6,0.6-1,1-1.3c0.4-0.3,0.9-0.4,1.5-0.4c1,0,1.7,0.3,2.2,1
			s0.8,1.6,0.8,2.7v5.5H138.9z"/>
		<path class="st2" d="M143.5,28v-2.4h2.4V28H143.5z M143.5,38.4v-9.1h2.4v9.1H143.5z"/>
		<path class="st2" d="M147.5,31.3v-2.1h4.5v2.1H147.5z M150.7,38.5c-0.8,0-1.4-0.2-1.8-0.6s-0.5-1-0.5-1.8v-9.4h2.4v8.8
			c0,0.2,0,0.4,0.1,0.5s0.2,0.2,0.4,0.2h0.6v2.3H150.7z"/>
		<path class="st2" d="M154.1,38.4V25.6h2.4v12.8H154.1z M159.3,38.4v-5.5c0-0.5-0.1-0.8-0.4-1c-0.3-0.2-0.6-0.4-1.1-0.4
			c-0.4,0-0.8,0.1-1,0.4c-0.2,0.2-0.4,0.6-0.4,1.1l-0.2-2c0.3-0.6,0.6-1,1-1.3c0.4-0.3,0.9-0.4,1.5-0.4c1,0,1.7,0.3,2.2,1
			s0.8,1.6,0.8,2.7v5.5H159.3z"/>
		<path class="st2" d="M167.8,38.5c-1.3,0-2.2-0.3-2.9-1c-0.7-0.7-1-1.7-1-2.9v-1.5c0-1.2,0.3-2.2,1-2.9s1.7-1,2.9-1s2.2,0.3,2.9,1
			s1,1.7,1,2.9v1.5c0,1.3-0.3,2.2-1,2.9C170,38.2,169,38.5,167.8,38.5z M167.8,36.2c0.5,0,0.9-0.1,1.1-0.4s0.4-0.7,0.4-1.2v-1.5
			c0-0.5-0.1-0.9-0.4-1.2s-0.6-0.4-1.1-0.4c-0.5,0-0.9,0.1-1.1,0.4c-0.3,0.3-0.4,0.7-0.4,1.2v1.5c0,0.5,0.1,0.9,0.4,1.2
			C166.9,36.1,167.3,36.2,167.8,36.2z"/>
		<path class="st2" d="M176.3,25.6v9.8c0,0.2,0.1,0.4,0.2,0.5c0.1,0.1,0.3,0.2,0.5,0.2h0.4v2.3h-1.2c-0.7,0-1.3-0.2-1.7-0.6
			s-0.6-1-0.6-1.8V25.6H176.3z"/>
		<path class="st2" d="M182.8,38.5c-1.3,0-2.2-0.3-2.9-1c-0.7-0.7-1-1.7-1-2.9v-1.5c0-1.2,0.3-2.2,1-2.9s1.7-1,2.9-1s2.2,0.3,2.9,1
			s1,1.7,1,2.9v1.5c0,1.3-0.3,2.2-1,2.9C185,38.2,184.1,38.5,182.8,38.5z M182.8,36.2c0.5,0,0.9-0.1,1.1-0.4s0.4-0.7,0.4-1.2v-1.5
			c0-0.5-0.1-0.9-0.4-1.2s-0.6-0.4-1.1-0.4c-0.5,0-0.9,0.1-1.1,0.4c-0.3,0.3-0.4,0.7-0.4,1.2v1.5c0,0.5,0.1,0.9,0.4,1.2
			C181.9,36.1,182.3,36.2,182.8,36.2z"/>
		<path class="st2" d="M191.7,38.5c-1,0-1.7-0.3-2.3-1c-0.5-0.7-0.8-1.7-0.8-2.9v-1.5c0-1.3,0.3-2.2,0.8-2.9c0.5-0.7,1.3-1,2.3-1
			c0.5,0,0.9,0.1,1.3,0.4s0.7,0.7,1,1.2l-0.2,2c0-0.3-0.1-0.6-0.2-0.8s-0.3-0.4-0.5-0.5c-0.2-0.1-0.4-0.2-0.7-0.2
			c-0.5,0-0.8,0.2-1.1,0.5s-0.4,0.7-0.4,1.3v1.5c0,0.5,0.1,1,0.4,1.3s0.6,0.4,1.1,0.4c0.3,0,0.5-0.1,0.7-0.2
			c0.2-0.1,0.4-0.3,0.5-0.5s0.2-0.5,0.2-0.8L194,37c-0.2,0.5-0.5,0.9-0.9,1.2C192.7,38.4,192.3,38.5,191.7,38.5z M192.2,42.1
			c-0.7,0-1.4-0.1-1.9-0.4c-0.6-0.3-1-0.6-1.3-1.1l1.6-1.5c0.2,0.2,0.5,0.4,0.7,0.5s0.6,0.2,0.9,0.2c0.5,0,0.9-0.1,1.2-0.4
			s0.5-0.7,0.5-1.2v-9h2.4v8.9c0,1.3-0.4,2.2-1.1,2.9C194.5,41.8,193.5,42.1,192.2,42.1z"/>
		<path class="st2" d="M198.5,28v-2.4h2.4V28H198.5z M198.5,38.4v-9.1h2.4v9.1H198.5z"/>
		<path class="st2" d="M207.1,38.5c-1.3,0-2.4-0.4-3.1-1.1c-0.7-0.7-1.1-1.7-1.1-3v-1c0-1.4,0.3-2.4,1.1-3.2c0.7-0.7,1.7-1.1,3-1.1
			c1.2,0,2.1,0.4,2.8,1.3c0.7,0.9,1,2.1,1,3.7v0.6h-6.2v-1.6h4l0-0.2c-0.1-0.5-0.2-0.9-0.5-1.2s-0.6-0.4-1.1-0.4
			c-0.6,0-1,0.2-1.3,0.5c-0.3,0.3-0.5,0.8-0.5,1.5v1.2c0,0.6,0.2,1.1,0.5,1.4s0.8,0.5,1.5,0.5c0.3,0,0.6-0.1,1-0.2s0.6-0.3,0.9-0.5
			l1.6,1.4c-0.5,0.4-1,0.8-1.6,1C208.3,38.4,207.7,38.5,207.1,38.5z"/>
	</g>
</g>
<g>
	<defs>
		<polygon id="SVGID_1_" points="45.1,45.7 51,58.4 49.1,58.4 41,45.8 		"/>
	</defs>
	<clipPath id="SVGID_00000018229883219591380260000001117650418321913268_">
		<use xlink:href="#SVGID_1_"  style="overflow:visible;"/>
	</clipPath>
	
		<linearGradient id="SVGID_00000078035325976241171770000007530091627440836754_" gradientUnits="userSpaceOnUse" x1="41.9756" y1="45.6195" x2="53.8879" y2="64.6806">
		<stop  offset="0" style="stop-color:#005B50"/>
		<stop  offset="1" style="stop-color:#2B975D"/>
	</linearGradient>
	
		<rect x="41" y="45.7" style="clip-path:url(#SVGID_00000018229883219591380260000001117650418321913268_);fill:url(#SVGID_00000078035325976241171770000007530091627440836754_);" width="10" height="12.7"/>
</g>
<g>
	<defs>
		<polygon id="SVGID_00000102514138070864154060000009184028102316637613_" points="50.7,45.7 56.6,58.4 54.7,58.4 46.6,45.8 		"/>
	</defs>
	<clipPath id="SVGID_00000118369721211087439850000009303619506820145026_">
		<use xlink:href="#SVGID_00000102514138070864154060000009184028102316637613_"  style="overflow:visible;"/>
	</clipPath>
	
		<linearGradient id="SVGID_00000033328119526522120660000004155874849123290272_" gradientUnits="userSpaceOnUse" x1="45.9664" y1="43.0542" x2="57.8787" y2="62.1152">
		<stop  offset="0" style="stop-color:#005B50"/>
		<stop  offset="1" style="stop-color:#2B975D"/>
	</linearGradient>
	
		<rect x="46.6" y="45.7" style="clip-path:url(#SVGID_00000118369721211087439850000009303619506820145026_);fill:url(#SVGID_00000033328119526522120660000004155874849123290272_);" width="10" height="12.7"/>
</g>
<g>
	<defs>
		<path id="SVGID_00000078765247539753907300000006161266020758852501_" d="M60.8,8.2c0,0,3.1,2,4.7,0.7c1.9-1.9,5.8-3.5,5.8-3.5
			c-2.2-1.4-6.3-1-6.3-1s0.3,1.7-2.7,3L60.8,8.2z"/>
	</defs>
	<clipPath id="SVGID_00000176758854096717196050000018027993021485058222_">
		<use xlink:href="#SVGID_00000078765247539753907300000006161266020758852501_"  style="overflow:visible;"/>
	</clipPath>
	
		<linearGradient id="SVGID_00000147197382479255320950000004959915753410743978_" gradientUnits="userSpaceOnUse" x1="62.124" y1="8.1799" x2="71.4994" y2="5.8358">
		<stop  offset="0" style="stop-color:#F4AA35"/>
		<stop  offset="1" style="stop-color:#FFCE4B"/>
	</linearGradient>
	
		<rect x="60.8" y="4.1" style="clip-path:url(#SVGID_00000176758854096717196050000018027993021485058222_);fill:url(#SVGID_00000147197382479255320950000004959915753410743978_);" width="10.6" height="6.1"/>
</g>
<g>
	<defs>
		<path id="SVGID_00000111155555109243808410000001805879589564683437_" d="M62.4,7.5c2.9-1.3,2.7-3,2.7-3
			C49.6-6.5,37.3,15.6,37.3,15.6C54,7.3,48.2,38.1,25,37.7c9.2,19.7,46.6,9.7,39.1-21.5c-0.8-2.3,1.4-7.3,1.4-7.3
			c-1.6,1.3-4.7-0.7-4.7-0.7L62.4,7.5z"/>
	</defs>
	<clipPath id="SVGID_00000173155620599437674380000010969119371195194023_">
		<use xlink:href="#SVGID_00000111155555109243808410000001805879589564683437_"  style="overflow:visible;"/>
	</clipPath>
	
		<linearGradient id="SVGID_00000063616544804151483710000003547124790100058498_" gradientUnits="userSpaceOnUse" x1="44.5681" y1="35.8394" x2="60.1128" y2="-7.2075">
		<stop  offset="0" style="stop-color:#007B70"/>
		<stop  offset="1" style="stop-color:#AFF022"/>
	</linearGradient>
	
		<rect x="25" y="-6.5" style="clip-path:url(#SVGID_00000173155620599437674380000010969119371195194023_);fill:url(#SVGID_00000063616544804151483710000003547124790100058498_);" width="46.6" height="63.9"/>
</g>
<g>
	<defs>
		<path id="SVGID_00000002368258052176157580000012894596955147615416_" d="M25,37.7c23.2,0.4,29-30.4,12.2-22.1
			c-14.2,9.2-21,22-21,22L25,37.7z"/>
	</defs>
	<clipPath id="SVGID_00000143585450258952355110000007718223432011498684_">
		<use xlink:href="#SVGID_00000002368258052176157580000012894596955147615416_"  style="overflow:visible;"/>
	</clipPath>
	
		<linearGradient id="SVGID_00000022524459703175499230000007975046959866519210_" gradientUnits="userSpaceOnUse" x1="49.9262" y1="34.1633" x2="30.2889" y2="18.9991">
		<stop  offset="0" style="stop-color:#007B70"/>
		<stop  offset="1" style="stop-color:#AFF022"/>
	</linearGradient>
	
		<rect x="16.2" y="7.3" style="clip-path:url(#SVGID_00000143585450258952355110000007718223432011498684_);fill:url(#SVGID_00000022524459703175499230000007975046959866519210_);" width="37.8" height="30.8"/>
</g>
<g>
	<defs>
		<path id="SVGID_00000160166090162422874750000006616369373592435361_" d="M25,37.7l-8.8-0.1l-14,8.3c4.9,2.4,9.6,0.6,9.6,0.6
			L25,37.7z"/>
	</defs>
	<clipPath id="SVGID_00000102523512731402187410000010054236118853012119_">
		<use xlink:href="#SVGID_00000160166090162422874750000006616369373592435361_"  style="overflow:visible;"/>
	</clipPath>
	
		<linearGradient id="SVGID_00000121999556645954416350000001898566408337082259_" gradientUnits="userSpaceOnUse" x1="24.9213" y1="28.3569" x2="8.4231" y2="49.7403">
		<stop  offset="0" style="stop-color:#007B70"/>
		<stop  offset="1" style="stop-color:#AFF022"/>
	</linearGradient>
	
		<rect x="2.2" y="37.6" style="clip-path:url(#SVGID_00000102523512731402187410000010054236118853012119_);fill:url(#SVGID_00000121999556645954416350000001898566408337082259_);" width="22.8" height="10.7"/>
</g>
<defs>
	<filter id="Adobe_OpacityMaskFilter" filterUnits="userSpaceOnUse" x="25" y="16.2" width="40.1" height="31.6">
		<feColorMatrix  type="matrix" values="1 0 0 0 0  0 1 0 0 0  0 0 1 0 0  0 0 0 1 0"/>
	</filter>
</defs>
<mask maskUnits="userSpaceOnUse" x="25" y="16.2" width="40.1" height="31.6" id="SVGID_00000081608438676426457950000003754250306514686096_">
	<g class="st9">
		
			<linearGradient id="SVGID_00000001626703770301309390000009576832308848982708_" gradientUnits="userSpaceOnUse" x1="-3900.3105" y1="2068.1843" x2="-3853.3064" y2="2051.7334" gradientTransform="matrix(1 0 0 1 3929.0967 -2030.4714)">
			<stop  offset="0" style="stop-color:#FFFFFF"/>
			<stop  offset="1" style="stop-color:#000000"/>
		</linearGradient>
		
			<rect x="25" y="16.2" style="fill:url(#SVGID_00000001626703770301309390000009576832308848982708_);" width="40.1" height="31.6"/>
	</g>
</mask>
<path style="mask:url(#SVGID_00000081608438676426457950000003754250306514686096_);fill-rule:evenodd;clip-rule:evenodd;fill:#106B60;" d="
	M64.1,16.2c0,0-2.8,22.9-27.2,23c10.5-5.3,10.5-15.7,10-20.1c0.3,7-7.4,18.8-21.9,18.6C34.2,57.4,71.6,47.4,64.1,16.2"/>
<defs>
	
		<filter id="Adobe_OpacityMaskFilter_00000110441468738996572190000013415265042766188982_" filterUnits="userSpaceOnUse" x="16.2" y="14.2" width="28.8" height="23.4">
		<feColorMatrix  type="matrix" values="1 0 0 0 0  0 1 0 0 0  0 0 1 0 0  0 0 0 1 0"/>
	</filter>
</defs>
<mask maskUnits="userSpaceOnUse" x="16.2" y="14.2" width="28.8" height="23.4" id="SVGID_00000163070921829650992920000012767524046176409758_">
	<g style="filter:url(#Adobe_OpacityMaskFilter_00000110441468738996572190000013415265042766188982_);">
		
			<linearGradient id="SVGID_00000058547264665833796440000014684995927944159160_" gradientUnits="userSpaceOnUse" x1="-3854.4324" y1="2145.7832" x2="-3798.3906" y2="2145.7822" gradientTransform="matrix(1 0 0 1 3849.8726 -2119.855)">
			<stop  offset="0" style="stop-color:#FFFFFF"/>
			<stop  offset="1" style="stop-color:#000000"/>
		</linearGradient>
		
			<rect x="16.2" y="14.2" style="fill:url(#SVGID_00000058547264665833796440000014684995927944159160_);" width="28.8" height="23.4"/>
	</g>
</mask>
<path style="mask:url(#SVGID_00000163070921829650992920000012767524046176409758_);fill-rule:evenodd;clip-rule:evenodd;fill:#EBF855;" d="
	M16.2,37.6c0,0,29.3-5.6,28.8-22.6c-1.6-1.1-4.1-1.2-7.7,0.6C23,24.8,16.2,37.6,16.2,37.6"/>
<defs>
	
		<filter id="Adobe_OpacityMaskFilter_00000049196209559459601270000017300314326543500699_" filterUnits="userSpaceOnUse" x="6.1" y="37.6" width="18.9" height="9.6">
		<feColorMatrix  type="matrix" values="1 0 0 0 0  0 1 0 0 0  0 0 1 0 0  0 0 0 1 0"/>
	</filter>
</defs>
<mask maskUnits="userSpaceOnUse" x="6.1" y="37.6" width="18.9" height="9.6" id="SVGID_00000090985432174975802400000004580976652689301163_">
	<g style="filter:url(#Adobe_OpacityMaskFilter_00000049196209559459601270000017300314326543500699_);">
		
			<linearGradient id="SVGID_00000158711918398276721210000017537314999811964346_" gradientUnits="userSpaceOnUse" x1="-3729.3562" y1="2070.0701" x2="-3748.1711" y2="2081.8286" gradientTransform="matrix(1 0 0 1 3758.2214 -2035.9585)">
			<stop  offset="0" style="stop-color:#FFFFFF"/>
			<stop  offset="1" style="stop-color:#000000"/>
		</linearGradient>
		
			<rect x="6.1" y="37.6" style="fill:url(#SVGID_00000158711918398276721210000017537314999811964346_);" width="18.9" height="9.6"/>
	</g>
</mask>
<path style="mask:url(#SVGID_00000090985432174975802400000004580976652689301163_);fill-rule:evenodd;clip-rule:evenodd;fill:#106B60;" d="
	M16.2,37.6c0,0-0.7,6.9-10.1,9.5c3.2,0.4,5.7-0.5,5.7-0.5L25,37.7L16.2,37.6z"/>
<defs>
	
		<filter id="Adobe_OpacityMaskFilter_00000023274351016250688980000012084535367505907636_" filterUnits="userSpaceOnUse" x="37.3" y="1.4" width="27.8" height="14.2">
		<feColorMatrix  type="matrix" values="1 0 0 0 0  0 1 0 0 0  0 0 1 0 0  0 0 0 1 0"/>
	</filter>
</defs>
<mask maskUnits="userSpaceOnUse" x="37.3" y="1.4" width="27.8" height="14.2" id="SVGID_00000121990973763006477580000003079429832428033948_">
	<g style="filter:url(#Adobe_OpacityMaskFilter_00000023274351016250688980000012084535367505907636_);">
		
			<linearGradient id="SVGID_00000147202673310562396090000017213989253643096485_" gradientUnits="userSpaceOnUse" x1="-3987.5527" y1="2306.3982" x2="-3988.7527" y2="2324.3857" gradientTransform="matrix(1 0 0 1 4039.7048 -2312.7488)">
			<stop  offset="0" style="stop-color:#FFFFFF"/>
			<stop  offset="1" style="stop-color:#000000"/>
		</linearGradient>
		
			<rect x="37.3" y="1.4" style="fill:url(#SVGID_00000147202673310562396090000017213989253643096485_);" width="27.8" height="14.2"/>
	</g>
</mask>
<path style="mask:url(#SVGID_00000121990973763006477580000003079429832428033948_);fill-rule:evenodd;clip-rule:evenodd;fill:#EBF855;" d="
	M37.3,15.6c0,0,11.8-11.5,23.5-7.4l1.6-0.8c2.9-1.3,2.7-3,2.7-3C49.6-6.5,37.3,15.6,37.3,15.6"/>
<defs>
	
		<filter id="Adobe_OpacityMaskFilter_00000080202445328259263780000017673251725552484790_" filterUnits="userSpaceOnUse" x="60.8" y="5.5" width="10.6" height="3.9">
		<feColorMatrix  type="matrix" values="1 0 0 0 0  0 1 0 0 0  0 0 1 0 0  0 0 0 1 0"/>
	</filter>
</defs>
<mask maskUnits="userSpaceOnUse" x="60.8" y="5.5" width="10.6" height="3.9" id="SVGID_00000093142426970114227390000006728093882089585025_">
	<g style="filter:url(#Adobe_OpacityMaskFilter_00000080202445328259263780000017673251725552484790_);">
		
			<linearGradient id="SVGID_00000129895582860379271450000016304925758627568042_" gradientUnits="userSpaceOnUse" x1="-4192.9526" y1="2375.5166" x2="-4173.7798" y2="2373.7432" gradientTransform="matrix(1 0 0 1 4252.1157 -2367.4365)">
			<stop  offset="0" style="stop-color:#FFFFFF"/>
			<stop  offset="1" style="stop-color:#000000"/>
		</linearGradient>
		
			<rect x="60.8" y="5.5" style="fill:url(#SVGID_00000129895582860379271450000016304925758627568042_);" width="10.6" height="3.9"/>
	</g>
</mask>
<path style="mask:url(#SVGID_00000093142426970114227390000006728093882089585025_);fill-rule:evenodd;clip-rule:evenodd;fill:#B75400;" d="
	M71.3,5.5c0,0-5.8,1.8-10.6,2.8c0,0,3.1,2,4.7,0.7C67.3,7,71.3,5.5,71.3,5.5"/>
<path class="st24" d="M37.6,57.7c12.5,0,20.2,0,32.7,0c0.1,2.7-2.9,2.4-5.4,2.4H30.5C30.4,57.2,34.8,57.7,37.6,57.7"/>
<g>
	<defs>
		<path id="SVGID_00000038388723499748412410000018284813344690615986_" d="M77.3,41.1c-6.3,0-11.4,5.3-11.4,11.8
			c0,1.2,0.2,2.3,0.5,3.4c0.6,0.1,1.2,0.2,1.9,0.2c6.3,0,11.4-5.3,11.4-11.8c0-1.2-0.2-2.3-0.5-3.4C78.6,41.2,77.9,41.1,77.3,41.1"
			/>
	</defs>
	<clipPath id="SVGID_00000081608553193882876560000018093397637997577639_">
		<use xlink:href="#SVGID_00000038388723499748412410000018284813344690615986_"  style="overflow:visible;"/>
	</clipPath>
	
		<linearGradient id="SVGID_00000178884634399509702810000011851534962668880289_" gradientUnits="userSpaceOnUse" x1="71.5894" y1="52.1819" x2="76.6131" y2="37.8427">
		<stop  offset="0" style="stop-color:#007B70"/>
		<stop  offset="1" style="stop-color:#AFF022"/>
	</linearGradient>
	
		<rect x="65.9" y="41.1" style="clip-path:url(#SVGID_00000081608553193882876560000018093397637997577639_);fill:url(#SVGID_00000178884634399509702810000011851534962668880289_);" width="13.8" height="15.4"/>
</g>
<g>
	<g>
	</g>
</g>
<g>
	<g>
	</g>
</g>
<g>
	<g>
	</g>
</g>
</svg>
